<?xml version="1.0" encoding="utf-8"?>
<!-- Generator: Adobe Illustrator 26.5.0, SVG Export Plug-In . SVG Version: 6.00 Build 0)  -->
<svg version="1.1" id="Capa_1" xmlns="http://www.w3.org/2000/svg" xmlns:xlink="http://www.w3.org/1999/xlink" x="0px" y="0px"
	 viewBox="0 0 50 50" style="enable-background:new 0 0 50 50;" xml:space="preserve">
<g>
	<path d="M25,41.8c-1.2,0-2-0.3-2.7-0.9c-0.6-0.6-0.9-1.5-0.9-2.7v-10h-9.8c-1.1,0-1.9-0.3-2.5-0.9c-0.6-0.6-0.9-1.4-0.9-2.5
		c0-1.1,0.3-2,0.9-2.5c0.6-0.6,1.5-0.9,2.5-0.9h9.8v-9.6c0-1.2,0.3-2,0.9-2.7c0.6-0.6,1.5-0.9,2.7-0.9c1.2,0,2,0.3,2.6,0.9
		c0.6,0.6,0.9,1.5,0.9,2.7v9.6h9.8c1.1,0,2,0.3,2.6,0.9c0.6,0.6,0.9,1.4,0.9,2.5c0,1.1-0.3,2-0.9,2.5s-1.5,0.9-2.6,0.9h-9.8v10
		c0,1.2-0.3,2.1-0.9,2.7S26.2,41.8,25,41.8z"/>
</g>
</svg>
