<?xml version="1.0" encoding="utf-8"?>
<!-- Generator: Adobe Illustrator 26.5.0, SVG Export Plug-In . SVG Version: 6.00 Build 0)  -->
<svg version="1.1" id="Capa_1" xmlns="http://www.w3.org/2000/svg" xmlns:xlink="http://www.w3.org/1999/xlink" x="0px" y="0px"
	 viewBox="0 0 50 50" style="enable-background:new 0 0 50 50;" xml:space="preserve">
<style type="text/css">
	.st0{fill:#D09D72;}
</style>
<g>
	<path class="st0" d="M25,50c-1.8,0-3-0.4-4-1.3c-0.9-0.9-1.3-2.2-1.3-4V29.8H5.1c-1.6,0-2.8-0.4-3.7-1.3C0.4,27.5,0,26.3,0,24.7
		s0.4-3,1.3-3.7c0.9-0.9,2.2-1.3,3.7-1.3h14.6V5.4c0-1.8,0.4-3,1.3-4C21.9,0.4,23.2,0,25,0s3,0.4,3.9,1.3c0.9,0.9,1.3,2.2,1.3,4
		v14.3h14.6c1.6,0,3,0.4,3.9,1.3c0.9,0.9,1.3,2.1,1.3,3.7s-0.4,3-1.3,3.7s-2.2,1.3-3.9,1.3H30.2v14.9c0,1.8-0.4,3.1-1.3,4
		C28,49.6,26.8,50,25,50z"/>
</g>
</svg>
