<?xml version="1.0" encoding="utf-8"?>
<!-- Generator: Adobe Illustrator 26.5.0, SVG Export Plug-In . SVG Version: 6.00 Build 0)  -->
<svg version="1.1" id="Capa_1" xmlns="http://www.w3.org/2000/svg" xmlns:xlink="http://www.w3.org/1999/xlink" x="0px" y="0px"
	 viewBox="0 0 50 50" style="enable-background:new 0 0 50 50;" xml:space="preserve">
<g>
	<path d="M5.6,49.6c-1.7,0-3-0.5-4-1.1c-1-1-1.7-1.9-1.7-3.2c0-1.3,0.5-2.7,1.8-4.1l17.9-19.7v5.7L2.8,8.8C1.5,7.4,0.8,5.9,1,4.7
		c0-1.3,0.7-2.4,1.7-3.2c1.2-0.6,2.5-1.1,4.1-1.1s3.1,0.3,4.3,0.8c1.2,0.6,2.2,1.3,3.1,2.5l13.2,15.1h-4.8L36.1,3.7
		c1-1.1,2.2-1.9,3.1-2.5c1-0.5,2.3-0.8,4-0.8c1.7,0,3,0.5,4.1,1.3c1,1,1.5,1.9,1.7,3.2c0,1.3-0.7,2.7-2,4.1L30.3,27.2v-5.4
		l17.9,19.4c1.3,1.3,2,2.9,1.8,4c0,1.3-0.7,2.4-1.7,3.2c-1,1-2.5,1.3-4.1,1.3s-3-0.3-4.1-0.8c-1.2-0.6-2.2-1.3-3.1-2.5L22.5,30.1
		h4.6L12.9,46.3c-1,1-2,1.9-3.1,2.4C8.8,49.3,7.3,49.6,5.6,49.6z"/>
</g>
</svg>
