<?xml version="1.0" encoding="utf-8"?>
<!-- Generator: Adobe Illustrator 26.5.0, SVG Export Plug-In . SVG Version: 6.00 Build 0)  -->
<svg version="1.1" id="Capa_1" xmlns="http://www.w3.org/2000/svg" xmlns:xlink="http://www.w3.org/1999/xlink" x="0px" y="0px"
	 viewBox="0 0 50 50" style="enable-background:new 0 0 50 50;" xml:space="preserve">
<g>
	<path d="M13.3,41.8c-1,0-1.8-0.3-2.4-0.8c-0.6-0.6-1-1.3-1-2.2c0-0.9,0.3-1.8,1.1-2.8l10.8-13.4v3.9L11.6,14
		c-0.8-1-1.2-1.9-1.1-2.8c0-0.9,0.4-1.6,1-2.2C12.2,8.5,13,8.2,14,8.2c1,0,1.9,0.2,2.6,0.5c0.7,0.4,1.3,0.9,1.9,1.7l8,10.3h-2.9
		l8.1-10.3c0.6-0.8,1.3-1.3,1.9-1.7C34.2,8.4,35,8.2,36,8.2c1,0,1.8,0.3,2.5,0.9c0.6,0.6,0.9,1.3,1,2.2c0,0.9-0.4,1.8-1.2,2.8
		L28.2,26.5v-3.7L39,36c0.8,0.9,1.2,1.9,1.1,2.7c0,0.9-0.4,1.6-1,2.2c-0.6,0.6-1.5,0.9-2.5,0.9c-1,0-1.8-0.2-2.5-0.5
		c-0.7-0.4-1.3-0.9-1.9-1.7l-8.7-11h2.8l-8.6,11c-0.6,0.7-1.2,1.3-1.9,1.6C15.2,41.6,14.3,41.8,13.3,41.8z"/>
</g>
</svg>
